<?xml version="1.0" encoding="UTF-8" standalone="no"?>
<svg id="svg4159" xmlns:rdf="http://www.w3.org/1999/02/22-rdf-syntax-ns#" xmlns="http://www.w3.org/2000/svg" height="326.01" viewBox="0 0 500.83432 326.01266" width="500.83" version="1.1" xmlns:cc="http://creativecommons.org/ns#" xmlns:dc="http://purl.org/dc/elements/1.1/">
<path id="path4169" stroke-linejoin="round" d="m490.05 299.77c16.808-24.592 0.66497-57.836-34.045-51.106-11.377 2.206-14.444 8.6956-10.241 21.672 4.399 13.579 4.8848 13.383-29.629 11.999-15.386-0.61702-36.964-1.3708-47.95-1.6751-27.435-0.75994-87.181-3.7741-91.736-4.6278-4.338-0.81306-4.9747-1.9562-10.912-19.566-6.0748-18.017-3.1485-20.098 24.324-17.289 44.704 4.5716 57.606-20.625 31.837-62.181-17.295-27.89-17.268-47.174 0.0895-64.49 13.139-13.107 19.257-14.122 66.864-11.084 42.15 2.6897 56.859 1.5632 70.668-5.4123 21.398-10.809 15.882-15.451-33.644-28.321-44.524-11.57-42.802-11.381-67.703-7.4009-10.66 1.704-25.959 3.6865-33.999 4.4068-8.0398 0.72029-21.057 2.3314-28.926 3.5785-26.213 4.1539-34.42 1.8511-42.539-11.933-10.271-17.439 2.7058-28.334 16.173-13.577 11.201 12.273 18.447 12.455 26.19 0.66263 12.229-18.623-9.9568-43.345-34.793-38.772-16.038 2.9532-25.482 13.222-33.781 36.736-2.7239 7.7175-5.6328 15.738-6.464 17.824-0.83113 2.0862-14.984 41.244-31.451 87.017-50.781 141.15-51.54 143.21-53.474 145-2.8829 2.6772-2.1578 2.6053-55.675 5.4587-57.364 3.0585-61.411 3.8371-72.32 13.905-1.2497 1.1533-2.4682 2.3098-2.707 2.5708-0.59522 0.65072 1.4105 5.0164 3.2039 6.9734 1.9529 2.1311-1.4502 2.062 59.441 1.2134 48.318-0.67342 86.183-0.70049 132.01-0.0929 16.254 0.21548 32.574 0.22163 125.88 0.0461 146.88-0.27627 137.29 0.2191 150.45-7.7817 6.4561-3.9238 11.364-8.6537 14.852-13.758z" stroke="#000" stroke-width="8.2" fill="none"/>
</svg>
