<svg xmlns="http://www.w3.org/2000/svg" width="41" height="48" viewBox="0 0 41 48" fill="none">
<path d="M31.6465 43.6879L14.1909 43.4049C12.4881 43.3332 11.7327 43.0106 10.832 42.4491C10.0778 41.9791 9.62987 41.4333 9.16715 40.8113C8.70836 40.1793 8.4463 39.1812 8.51496 38.6649C8.70178 37.2601 8.87251 37.1091 9.16361 36.3726L15.9197 19.0917L20.9238 19.1729L13.2524 37.278C13.1265 37.5965 13.0883 37.9128 13.1377 38.2268C13.191 38.5309 13.316 38.8183 13.5127 39.0892C13.7093 39.3601 13.9701 39.5964 14.2952 39.7983C14.6204 40.0002 14.9138 40.1019 15.4162 40.2007L33.1768 40.618L31.6465 43.6879Z" fill="#ACDE8D"/>
<path d="M33.0032 40.9805L17.2251 40.6538C15.6856 40.5829 15.0003 40.2938 14.182 39.7926C13.4967 39.3729 13.0876 38.8875 12.6646 38.3344C12.245 37.7726 12.0004 36.8873 12.0585 36.4302C12.2164 35.1866 12.3695 35.0536 12.6269 34.4024L18.5987 19.1237L23.1219 19.2173L16.3293 35.2223C16.218 35.5039 16.1859 35.7839 16.233 36.0623C16.2836 36.3319 16.3988 36.5871 16.5786 36.8279C16.7584 37.0686 16.996 37.2792 17.2914 37.4594C17.5868 37.6397 17.8527 37.7311 18.3076 37.8208L34.3625 38.2677L33.0032 40.9805Z" fill="#ACDE8D"/>
<path d="M35.377 7.6757L23.1575 7.42096C22.0941 7.4108 20.9062 7.54176 19.9651 7.87039C19.0385 8.18731 18.1798 8.52689 17.4779 9.10067C16.776 9.67445 16.5088 9.8265 15.7392 10.7949C14.9697 11.7633 14.4391 12.3174 13.6285 14.5574L7.50957 31.0696L2.67395 30.9688L10.182 12.6803C11.2588 10.1955 11.3563 10.2011 12.0405 9.09854C12.7393 7.98431 13.6503 7.03062 14.7736 6.23747C15.9116 5.43261 17.2109 4.81124 18.6718 4.37336C20.1329 3.92349 21.6538 3.70902 23.2345 3.72996L37.0006 4.01695L35.377 7.6757Z" fill="#ACDE8D"/>
<path d="M36.2774 5.64612L22.8509 5.36622C21.6825 5.35489 20.5812 5.52745 19.5472 5.88389C18.5293 6.22764 17.4811 6.68806 16.7101 7.31068C15.939 7.93329 15.2377 8.49653 14.7285 9.42437C14.2194 10.3522 14.7081 9.3054 13.4688 12.2241L5.66402 31.0312L0.350766 30.9205L8.59531 11.0714C9.77775 8.37458 9.8849 8.3806 10.6363 7.18406C11.4038 5.97482 12.4046 4.93989 13.6386 4.07927C14.8887 3.20595 16.3163 2.53185 17.9213 2.05697C19.5266 1.56906 21.1977 1.33669 22.9345 1.35986L38.0603 1.67519L36.2774 5.64612Z" fill="#ACDE8D"/>
<path d="M15.7544 15.8398C16.0185 14.4786 17.1083 12.3802 17.8711 11.2482L34.3885 11.6099L32.3799 16.2977L15.7544 15.8398Z" fill="#ACDE8D"/>
</svg>