<svg xmlns="http://www.w3.org/2000/svg" width="22" height="23" viewBox="0 0 22 23" fill="none">
<path d="M11.093 0.370972C12.0893 0.370972 13.0503 0.498159 13.976 0.752533C14.9016 1.00691 15.7672 1.3708 16.5727 1.84422C17.3782 2.31764 18.1095 2.88292 18.7667 3.54005C19.4238 4.19718 19.9891 4.93204 20.4625 5.74463C20.9359 6.55721 21.2998 7.42279 21.5542 8.34136C21.8086 9.25994 21.9393 10.2209 21.9463 11.2243C21.9463 12.2206 21.8192 13.1815 21.5648 14.1072C21.3104 15.0328 20.9465 15.8984 20.4731 16.7039C19.9997 17.5094 19.4344 18.2408 18.7773 18.8979C18.1201 19.555 17.3853 20.1203 16.5727 20.5937C15.7601 21.0671 14.8945 21.431 13.976 21.6854C13.0574 21.9398 12.0964 22.0705 11.093 22.0776C10.0967 22.0776 9.13578 21.9504 8.21014 21.696C7.2845 21.4416 6.41892 21.0777 5.6134 20.6043C4.80788 20.1309 4.07656 19.5656 3.41942 18.9085C2.76229 18.2514 2.19701 17.5165 1.7236 16.7039C1.25018 15.8913 0.886281 15.0293 0.631906 14.1178C0.377532 13.2063 0.246812 12.2418 0.239746 11.2243C0.239746 10.228 0.366933 9.267 0.621307 8.34136C0.875682 7.41572 1.23958 6.55015 1.713 5.74463C2.18642 4.93911 2.75169 4.20778 3.40883 3.55065C4.06596 2.89352 4.80082 2.32824 5.6134 1.85482C6.42599 1.3814 7.28803 1.01751 8.19954 0.763132C9.11105 0.508758 10.0756 0.378038 11.093 0.370972ZM11.093 20.7209C11.9622 20.7209 12.7995 20.6079 13.605 20.3817C14.4105 20.1556 15.1666 19.8377 15.8732 19.4278C16.5798 19.018 17.2228 18.5199 17.8022 17.9334C18.3816 17.3469 18.8762 16.7075 19.286 16.015C19.6958 15.3225 20.0173 14.5665 20.2505 13.7468C20.4837 12.9272 20.5968 12.0863 20.5897 11.2243C20.5897 10.3552 20.4766 9.51785 20.2505 8.71233C20.0244 7.90681 19.7064 7.15075 19.2966 6.44416C18.8868 5.73756 18.3886 5.09456 17.8022 4.51515C17.2157 3.93574 16.5762 3.44113 15.8838 3.0313C15.1913 2.62148 14.4352 2.29998 13.6156 2.0668C12.7959 1.83362 11.9551 1.72057 11.093 1.72763C10.2239 1.72763 9.38662 1.84069 8.5811 2.0668C7.77558 2.29291 7.01953 2.61088 6.31293 3.0207C5.60634 3.43053 4.96333 3.92868 4.38393 4.51515C3.80452 5.10163 3.3099 5.74109 2.90008 6.43356C2.49025 7.12602 2.16875 7.88208 1.93557 8.70173C1.7024 9.52138 1.58934 10.3622 1.59641 11.2243C1.59641 12.0934 1.70946 12.9307 1.93557 13.7362C2.16168 14.5417 2.47965 15.2978 2.88948 16.0044C3.2993 16.711 3.79745 17.354 4.38393 17.9334C4.9704 18.5128 5.60987 19.0074 6.30233 19.4172C6.9948 19.8271 7.75085 20.1486 8.5705 20.3817C9.39015 20.6149 10.231 20.728 11.093 20.7209ZM17.4206 11.3939L17.9294 9.86761H18.7243L17.8234 12.5809H17.0284L16.5197 11.0547L16.0109 12.5809H15.216L14.3151 9.86761H15.11L15.6188 11.3939L16.1275 9.86761H16.9119L17.4206 11.3939ZM12.5027 9.86761H13.2976L12.3967 12.5809H11.6018L11.093 11.0547L10.5843 12.5809H9.78938L8.88847 9.86761H9.68339L10.1921 11.3939L10.7009 9.86761H11.4852L11.994 11.3939L12.5027 9.86761ZM7.07605 9.86761H7.87097L6.97006 12.5809H6.17514L5.6664 11.0547L5.15765 12.5809H4.36273L3.46182 9.86761H4.25674L4.76549 11.3939L5.27424 9.86761H6.05856L6.56731 11.3939L7.07605 9.86761Z" fill="white"/>
</svg>