<svg xmlns="http://www.w3.org/2000/svg" width="19" height="19" viewBox="0 0 19 19" fill="none">
<path d="M9.25098 0.406494C6.86403 0.406494 4.57484 1.35471 2.88702 3.04253C1.19919 4.73036 0.250977 7.01955 0.250977 9.40649C0.250977 11.7934 1.19919 14.0826 2.88702 15.7705C4.57484 17.4583 6.86403 18.4065 9.25098 18.4065C11.6379 18.4065 13.9271 17.4583 15.6149 15.7705C17.3028 14.0826 18.251 11.7934 18.251 9.40649C18.251 7.01955 17.3028 4.73036 15.6149 3.04253C13.9271 1.35471 11.6379 0.406494 9.25098 0.406494ZM11.6232 16.7437H11.5535C11.5011 16.7467 11.4486 16.7389 11.3994 16.7209C11.3501 16.7028 11.305 16.6749 11.267 16.6387C11.2318 16.6016 11.2044 16.5577 11.1864 16.5098C11.1683 16.4619 11.16 16.4109 11.162 16.3597V15.3052C11.1665 14.955 11.1695 14.6002 11.1695 14.2432C11.1682 13.9822 11.1301 13.7226 11.0562 13.4722C10.9862 13.2191 10.8452 12.9914 10.6497 12.816C11.1725 12.7655 11.6863 12.6468 12.1782 12.4627C12.5931 12.305 12.9684 12.0582 13.2777 11.7397C13.583 11.4195 13.8102 11.0325 13.9415 10.6102C14.1011 10.0931 14.1771 9.55383 14.1665 9.01274C14.1694 8.63495 14.1033 8.2598 13.9715 7.90574C13.8375 7.54889 13.6349 7.22174 13.3752 6.94274C13.4313 6.80203 13.472 6.65569 13.4967 6.50624C13.5215 6.35624 13.5342 6.20474 13.5342 6.05324C13.5342 5.85824 13.5117 5.66324 13.4667 5.47349C13.4258 5.27887 13.3704 5.08759 13.301 4.90124C13.2745 4.8909 13.2462 4.88581 13.2177 4.88624H13.1352C12.9627 4.88774 12.7932 4.91624 12.6297 4.96949C12.4496 5.02206 12.2734 5.08722 12.1025 5.16449C11.9324 5.2407 11.7669 5.32659 11.6067 5.42174C11.4455 5.51699 11.303 5.60849 11.177 5.69324C9.91527 5.34159 8.58143 5.34159 7.31973 5.69324C7.17902 5.59917 7.03597 5.50865 6.89073 5.42174C6.72825 5.3258 6.55992 5.24013 6.38673 5.16524C6.21622 5.08541 6.03936 5.01994 5.85798 4.96949C5.6977 4.91655 5.53026 4.88847 5.36148 4.88624H5.27898C5.25076 4.88585 5.22274 4.89094 5.19648 4.90124C5.12602 5.08785 5.06839 5.27904 5.02398 5.47349C4.98348 5.66399 4.96398 5.85824 4.96323 6.05324C4.96323 6.20474 4.97598 6.35624 5.00148 6.50624C5.02623 6.65549 5.06598 6.80174 5.12148 6.94274C4.86242 7.22211 4.66062 7.54952 4.52748 7.90649C4.39494 8.26042 4.32809 8.63557 4.33023 9.01349C4.31974 9.55168 4.39363 10.0882 4.54923 10.6035C4.68498 11.0257 4.91148 11.4135 5.21223 11.7405C5.52348 12.057 5.89848 12.303 6.31173 12.4635C6.80148 12.651 7.31448 12.771 7.83648 12.8205C7.69073 12.9526 7.57511 13.1145 7.49748 13.2952C7.42362 13.474 7.3732 13.6616 7.34748 13.8532C7.07229 13.985 6.77133 14.0542 6.46623 14.0557C6.18288 14.0671 5.90324 13.9883 5.66748 13.8307C5.4413 13.6631 5.24977 13.4533 5.10348 13.2127C5.038 13.1117 4.96478 13.0159 4.88448 12.9262C4.79976 12.8319 4.70634 12.7458 4.60548 12.669C4.50606 12.5947 4.39708 12.5342 4.28148 12.489C4.16774 12.4391 4.04491 12.4133 3.92073 12.4132C3.89073 12.414 3.86073 12.417 3.83073 12.4207C3.78976 12.4206 3.74893 12.4257 3.70923 12.4357C3.67433 12.4449 3.64132 12.4601 3.61173 12.4807C3.59827 12.4882 3.58702 12.499 3.57912 12.5122C3.57121 12.5254 3.56694 12.5404 3.56673 12.5557C3.56988 12.5918 3.58091 12.6268 3.59906 12.6582C3.6172 12.6895 3.64201 12.7165 3.67173 12.7372C3.74148 12.7927 3.79923 12.8355 3.84573 12.8655L3.86823 12.8812C3.96798 12.9585 4.06398 13.0417 4.15473 13.131C4.23873 13.2045 4.31448 13.2877 4.37973 13.3785C4.44723 13.4677 4.50573 13.563 4.55298 13.6642C4.60773 13.7647 4.66548 13.8802 4.72623 14.0115C4.86723 14.367 5.11773 14.6677 5.44173 14.8702C5.78148 15.0525 6.16248 15.1432 6.54873 15.1335C6.67923 15.1335 6.81048 15.126 6.94023 15.111C7.06923 15.09 7.19748 15.0682 7.32648 15.0427V16.35C7.32881 16.4027 7.32 16.4553 7.30061 16.5044C7.28122 16.5534 7.2517 16.5979 7.21397 16.6348C7.17624 16.6716 7.13116 16.7001 7.08166 16.7184C7.03216 16.7367 6.97937 16.7443 6.92673 16.7407H6.88023C5.13126 16.1757 3.64147 15.0049 2.67915 13.439C1.71683 11.873 1.3452 10.015 1.63119 8.19943C1.91717 6.38384 2.84198 4.73002 4.23908 3.53576C5.63618 2.34151 7.41376 1.6853 9.25173 1.6853C11.0897 1.6853 12.8673 2.34151 14.2644 3.53576C15.6615 4.73002 16.5863 6.38384 16.8723 8.19943C17.1583 10.015 16.7866 11.873 15.8243 13.439C14.862 15.0049 13.3722 16.1757 11.6232 16.7407V16.7437Z" fill="white"/>
</svg>