<svg xmlns="http://www.w3.org/2000/svg" width="70" height="69" viewBox="0 0 70 69" fill="none">
<path d="M34.6 0.100586C25.4654 0.100586 16.7049 3.72929 10.2458 10.1884C3.78666 16.6475 0.157959 25.408 0.157959 34.5426C0.157959 43.6772 3.78666 52.4377 10.2458 58.8968C16.7049 65.3559 25.4654 68.9846 34.6 68.9846C43.7346 68.9846 52.495 65.3559 58.9542 58.8968C65.4133 52.4377 69.042 43.6772 69.042 34.5426C69.042 25.408 65.4133 16.6475 58.9542 10.1884C52.495 3.72929 43.7346 0.100586 34.6 0.100586ZM43.6783 62.6215H43.4114C43.2109 62.6328 43.0102 62.603 42.8217 62.5339C42.6331 62.4648 42.4607 62.3578 42.315 62.2196C42.1804 62.0773 42.0755 61.9096 42.0065 61.7263C41.9375 61.5429 41.9058 61.3477 41.9132 61.1519V57.1165C41.9304 55.7761 41.9419 54.4185 41.9419 53.0523C41.9372 52.0533 41.7913 51.06 41.5085 50.1018C41.2406 49.1332 40.7007 48.2617 39.9528 47.5904C41.9533 47.3973 43.9199 46.9428 45.8022 46.2385C47.3901 45.6347 48.8263 44.6903 50.0099 43.4717C51.1781 42.2461 52.0477 40.7651 52.55 39.1492C53.161 37.1703 53.4517 35.1064 53.4111 33.0358C53.4222 31.59 53.1693 30.1543 52.6648 28.7994C52.1521 27.4338 51.3769 26.1818 50.383 25.1141C50.5976 24.5756 50.7535 24.0156 50.848 23.4437C50.9427 22.8696 50.9915 22.2899 50.9915 21.7101C50.9915 20.9638 50.9054 20.2176 50.7332 19.4914C50.5767 18.7466 50.3647 18.0146 50.0989 17.3015C49.9974 17.2619 49.8892 17.2424 49.7803 17.2441H49.4646C48.8044 17.2498 48.1558 17.3589 47.5301 17.5627C46.8409 17.7639 46.1666 18.0132 45.5124 18.3089C44.8617 18.6006 44.2282 18.9293 43.6152 19.2934C42.9981 19.6579 42.4528 20.0081 41.9706 20.3324C37.1422 18.9867 32.0377 18.9867 27.2093 20.3324C26.6708 19.9724 26.1234 19.626 25.5676 19.2934C24.9458 18.9262 24.3016 18.5984 23.6388 18.3118C22.9863 18.0063 22.3095 17.7557 21.6153 17.5627C21.002 17.3601 20.3612 17.2526 19.7153 17.2441H19.3996C19.2916 17.2426 19.1844 17.2621 19.0838 17.3015C18.8142 18.0156 18.5937 18.7473 18.4237 19.4914C18.2687 20.2205 18.1941 20.9638 18.1912 21.7101C18.1912 22.2899 18.24 22.8696 18.3376 23.4437C18.4323 24.0148 18.5844 24.5745 18.7968 25.1141C17.8054 26.1832 17.0332 27.4362 16.5237 28.8023C16.0164 30.1567 15.7606 31.5924 15.7688 33.0386C15.7287 35.0982 16.0114 37.1514 16.6069 39.1234C17.1264 40.7393 17.9932 42.2232 19.1441 43.4746C20.3352 44.6858 21.7703 45.6272 23.3518 46.2414C25.226 46.959 27.1892 47.4182 29.1868 47.6076C28.6291 48.1131 28.1866 48.7328 27.8895 49.4244C27.6069 50.1085 27.4139 50.8263 27.3155 51.5598C26.2624 52.0641 25.1106 52.3287 23.943 52.3348C22.8587 52.3782 21.7886 52.0767 20.8863 51.4737C20.0208 50.8323 19.2878 50.0291 18.7279 49.1087C18.4774 48.7221 18.1972 48.3555 17.8899 48.0123C17.5656 47.6514 17.2082 47.3218 16.8222 47.0278C16.4417 46.7435 16.0246 46.5118 15.5822 46.339C15.147 46.1482 14.6769 46.0495 14.2017 46.0491C14.0869 46.052 13.9721 46.0635 13.8573 46.0778C13.7005 46.0773 13.5443 46.0966 13.3923 46.1352C13.2588 46.1702 13.1324 46.2285 13.0192 46.3074C12.9677 46.3358 12.9246 46.3773 12.8944 46.4277C12.8641 46.4781 12.8478 46.5356 12.847 46.5944C12.859 46.7326 12.9013 46.8664 12.9707 46.9864C13.0401 47.1064 13.1351 47.2097 13.2488 47.289C13.5157 47.5014 13.7367 47.665 13.9147 47.7798L14.0008 47.8401C14.3825 48.1357 14.7499 48.4543 15.0972 48.7959C15.4186 49.0771 15.7085 49.3957 15.9582 49.743C16.2165 50.0846 16.4404 50.4491 16.6212 50.8365C16.8308 51.2211 17.0518 51.6632 17.2843 52.1654C17.8238 53.5259 18.7825 54.6768 20.0224 55.4518C21.3226 56.1492 22.7806 56.4965 24.2588 56.4592C24.7582 56.4592 25.2604 56.4305 25.757 56.3731C26.2507 56.2927 26.7415 56.2095 27.2351 56.1119V61.1146C27.2441 61.3163 27.2103 61.5176 27.1361 61.7054C27.0619 61.8932 26.949 62.0632 26.8046 62.2044C26.6602 62.3455 26.4877 62.4546 26.2982 62.5245C26.1088 62.5944 25.9068 62.6235 25.7053 62.61H25.5274C18.8343 60.4478 13.133 55.9669 9.45032 49.9744C5.76762 43.9818 4.34544 36.8713 5.43987 29.9233C6.53431 22.9753 10.0735 16.6462 15.42 12.076C20.7665 7.50567 27.5691 4.99443 34.6028 4.99443C41.6366 4.99443 48.4392 7.50567 53.7857 12.076C59.1322 16.6462 62.6714 22.9753 63.7658 29.9233C64.8603 36.8713 63.4381 43.9818 59.7554 49.9744C56.0727 55.9669 50.3714 60.4478 43.6783 62.61V62.6215Z" fill="white"/>
</svg>