<svg xmlns="http://www.w3.org/2000/svg" width="18" height="40" viewBox="0 0 18 40" fill="none">
<path d="M17.1702 3.73526C17.3191 3.54782 17.4354 3.32733 17.5127 3.08638C17.5899 2.84543 17.6265 2.58874 17.6204 2.33096C17.6143 2.07318 17.5655 1.81936 17.477 1.58399C17.3884 1.34862 17.2618 1.13631 17.1042 0.959191C16.9467 0.782069 16.7614 0.643599 16.5589 0.551687C16.3565 0.459776 16.1407 0.416223 15.9241 0.423515C15.7075 0.430807 15.4942 0.488802 15.2964 0.594188C15.0986 0.699573 14.9202 0.850287 14.7713 1.03772L0.747368 18.7072C0.457755 19.0717 0.296387 19.5543 0.296387 20.0559C0.296387 20.5576 0.457755 21.0402 0.747368 21.4047L14.7713 39.0761C14.9192 39.2676 15.0976 39.4223 15.2961 39.5311C15.4946 39.6399 15.7093 39.7007 15.9278 39.7099C16.1462 39.7192 16.364 39.6767 16.5685 39.5849C16.773 39.4931 16.9602 39.3539 17.1191 39.1753C17.278 38.9968 17.4055 38.7824 17.4942 38.5447C17.5829 38.307 17.6311 38.0507 17.6358 37.7907C17.6406 37.5306 17.6019 37.2721 17.5219 37.03C17.442 36.7879 17.3225 36.5672 17.1702 36.3805L4.21541 20.0559L17.1702 3.73526Z" fill="white"/>
</svg>