<svg xmlns="http://www.w3.org/2000/svg" width="23" height="23" viewBox="0 0 23 23" fill="none">
<path d="M8.93439 15.2038H7.00491V8.93423H8.93439V15.2038ZM7.96965 8.12988C7.27384 8.12988 6.92532 7.8079 6.92532 7.16514C6.92317 7.03615 6.949 6.90823 7.00105 6.79019C7.05309 6.67214 7.13012 6.56679 7.2268 6.48138C7.42789 6.29377 7.69474 6.19284 7.96965 6.2004C8.66547 6.2004 9.01398 6.52359 9.01398 7.16635C9.01398 7.80911 8.66668 8.12988 7.96965 8.12988ZM16.0903 15.2038H14.1211V11.7066C14.1211 10.7962 13.7979 10.3403 13.1551 10.3403C12.6462 10.3403 12.3122 10.5948 12.1494 11.1037C12.0975 11.1845 12.0698 11.3461 12.0698 11.5861V15.2038H10.1005V10.9433C10.1005 9.97856 10.086 9.30927 10.0607 8.93423H11.749L11.8696 9.77717C12.3122 9.10668 12.9549 8.77264 13.8389 8.77264C14.5106 8.77264 15.052 9.00658 15.4669 9.47569C15.8841 9.94479 16.0915 10.6213 16.0915 11.5065V15.2038H16.0903ZM11.3064 22.0776C5.32144 22.0776 0.453139 17.2093 0.453139 11.2243C0.453139 5.23928 5.32144 0.370974 11.3064 0.370974C17.2914 0.370974 22.1597 5.23928 22.1597 11.2243C22.1597 17.2093 17.2914 22.0776 11.3064 22.0776ZM11.749 1.94705C8.22703 1.94705 6.51433 2.87527 4.75019 4.56403C2.9071 6.32836 1.86581 8.84652 1.86581 11.2243C1.86581 13.9104 2.2586 15.2181 4.35852 17.5363C6.45843 19.8545 8.20173 20.8641 11.749 20.7145C16.4027 20.7145 20.5898 15.8779 20.5898 11.2243C20.5898 6.57061 16.4027 1.94705 11.749 1.94705Z" fill="white"/>
</svg>