<svg xmlns="http://www.w3.org/2000/svg" width="69" height="69" viewBox="0 0 69 69" fill="none">
<path d="M27.0027 47.1713H20.8797V27.2753H27.0027V47.1713ZM23.9412 24.7228C21.7331 24.7228 20.6271 23.701 20.6271 21.6613C20.6203 21.252 20.7022 20.846 20.8674 20.4714C21.0326 20.0968 21.277 19.7625 21.5838 19.4914C22.222 18.8961 23.0688 18.5758 23.9412 18.5998C26.1493 18.5998 27.2553 19.6254 27.2553 21.6651C27.2553 23.7049 26.1531 24.7228 23.9412 24.7228ZM49.7115 47.1713H43.4622V36.0734C43.4622 33.1841 42.4366 31.7375 40.3968 31.7375C38.7819 31.7375 37.7218 32.545 37.2052 34.1599C37.0406 34.4163 36.9526 34.9291 36.9526 35.6907V47.1713H30.7033V33.6509C30.7033 30.5894 30.6574 28.4655 30.577 27.2753H35.9347L36.3174 29.9503C37.7218 27.8226 39.7616 26.7625 42.5667 26.7625C44.6982 26.7625 46.4165 27.505 47.733 28.9936C49.0571 30.4823 49.7153 32.6292 49.7153 35.4381V47.1713H49.7115ZM34.5302 68.9846C15.5373 68.9846 0.0881783 53.5355 0.0881783 34.5426C0.0881783 15.5497 15.5373 0.100593 34.5302 0.100593C53.5231 0.100593 68.9722 15.5497 68.9722 34.5426C68.9722 53.5355 53.5231 68.9846 34.5302 68.9846ZM35.9347 5.10214C24.758 5.10214 19.3229 8.04777 13.7245 13.4069C7.8756 19.0058 4.57115 26.997 4.57115 34.5426C4.57116 43.0667 5.81766 47.2165 12.4816 54.5732C19.1455 61.9299 24.6777 65.1336 35.9347 64.6591C50.7027 64.6591 63.9903 49.3106 63.9903 34.5426C63.9903 19.7746 50.7027 5.10214 35.9347 5.10214Z" fill="white"/>
</svg>