<svg xmlns="http://www.w3.org/2000/svg" width="20" height="43" viewBox="0 0 20 43" fill="none">
<path d="M1.40164 39.1748C1.24009 39.3783 1.11379 39.6176 1.02996 39.8791C0.946131 40.1406 0.906405 40.4192 0.913056 40.699C0.919707 40.9787 0.972603 41.2542 1.06872 41.5097C1.16484 41.7651 1.30231 41.9955 1.47326 42.1878C1.64422 42.38 1.84532 42.5303 2.06509 42.6301C2.28485 42.7298 2.51898 42.7771 2.75409 42.7692C2.98921 42.7613 3.22072 42.6983 3.43539 42.5839C3.65007 42.4696 3.84371 42.306 4.00526 42.1025L19.2259 22.9254C19.5402 22.5298 19.7153 22.006 19.7153 21.4615C19.7153 20.9171 19.5402 20.3933 19.2259 19.9977L4.00526 0.818366C3.84478 0.610484 3.65118 0.442614 3.43571 0.324515C3.22025 0.206419 2.98721 0.140444 2.75014 0.130419C2.51307 0.120398 2.27668 0.166529 2.05472 0.266135C1.83275 0.36574 1.62963 0.516833 1.45716 0.710638C1.28468 0.904444 1.14628 1.1371 1.05 1.39509C0.953728 1.65308 0.901489 1.93126 0.896324 2.21348C0.891159 2.4957 0.93317 2.77632 1.01992 3.03905C1.10666 3.30179 1.23642 3.54139 1.40164 3.74395L15.4619 21.4615L1.40164 39.1748Z" fill="white"/>
</svg>