<svg xmlns="http://www.w3.org/2000/svg" width="57" height="65" viewBox="0 0 57 65" fill="none">
<path d="M43.932 59.4221L19.7893 59.0308C17.4341 58.9316 16.3893 58.4854 15.1436 57.7089C14.1006 57.0587 13.481 56.3039 12.841 55.4435C12.2064 54.5694 11.844 53.189 11.9389 52.4749C12.1973 50.5319 12.4335 50.3231 12.8361 49.3044L22.1804 25.4034L29.1016 25.5156L18.4913 50.5567C18.3172 50.9972 18.2643 51.4347 18.3326 51.869C18.4064 52.2895 18.5793 52.6871 18.8512 53.0617C19.1232 53.4364 19.484 53.7633 19.9336 54.0425C20.3833 54.3217 20.7891 54.4624 21.484 54.5991L46.0486 55.1762L43.932 59.4221Z" fill="#ACDE8D"/>
<path d="M45.8092 55.6776L23.9865 55.2258C21.8572 55.1277 20.9094 54.7279 19.7776 54.0346C18.8298 53.4541 18.264 52.7828 17.6789 52.0179C17.0986 51.2408 16.7603 50.0163 16.8406 49.3842C17.059 47.6641 17.2708 47.4802 17.6268 46.5795L25.8863 25.4476L32.1424 25.5771L22.7475 47.7135C22.5936 48.103 22.5492 48.4902 22.6144 48.8753C22.6843 49.2481 22.8436 49.6011 23.0923 49.9341C23.341 50.2672 23.6696 50.5583 24.0782 50.8077C24.4867 51.057 24.8546 51.1834 25.4837 51.3074L47.6891 51.9256L45.8092 55.6776Z" fill="#ACDE8D"/>
<path d="M49.0916 9.6141L32.1909 9.26177C30.7201 9.24771 29.0771 9.42885 27.7754 9.88337C26.494 10.3217 25.3062 10.7914 24.3354 11.585C23.3646 12.3786 22.9951 12.5889 21.9307 13.9283C20.8664 15.2677 20.1326 16.034 19.0113 19.1322L10.5483 41.9701L3.86019 41.8307L14.2446 16.536C15.7338 13.0993 15.8687 13.1069 16.815 11.582C17.7815 10.0409 19.0415 8.7219 20.5952 7.62489C22.169 6.51169 23.9662 5.65228 25.9867 5.04666C28.0076 4.42444 30.1111 4.12781 32.2973 4.15678L51.3372 4.5537L49.0916 9.6141Z" fill="#ACDE8D"/>
<path d="M50.3376 6.80679L31.7675 6.41966C30.1514 6.40399 28.6283 6.64266 27.1982 7.13565C25.7903 7.61108 24.3405 8.24789 23.2741 9.10903C22.2076 9.97016 21.2377 10.7492 20.5334 12.0325C19.8292 13.3157 20.5052 11.8679 18.7912 15.9048L7.99638 41.9168L0.647649 41.7636L12.0506 14.3105C13.6861 10.5805 13.8343 10.5888 14.8736 8.9339C15.9351 7.26141 17.3192 5.83 19.026 4.63969C20.755 3.43181 22.7295 2.49946 24.9494 1.84265C27.1697 1.16782 29.4809 0.846435 31.883 0.878485L52.8035 1.31462L50.3376 6.80679Z" fill="#ACDE8D"/>
<path d="M21.9517 20.9058C22.3169 19.0232 23.8242 16.1209 24.8793 14.5552L47.7244 15.0555L44.9462 21.5391L21.9517 20.9058Z" fill="#ACDE8D"/>
</svg>