<svg xmlns="http://www.w3.org/2000/svg" width="162" height="187" viewBox="0 0 162 187" fill="none">
<path d="M126.328 172.877L56.145 171.739C49.2985 171.451 46.2612 170.153 42.6399 167.896C39.6077 166.006 37.8065 163.812 35.9461 161.311C34.1014 158.77 33.0477 154.757 33.3238 152.681C34.0749 147.033 34.7614 146.425 35.9318 143.464L63.096 73.9831L83.2161 74.3093L52.3716 147.105C51.8655 148.385 51.7117 149.657 51.9104 150.919C52.1249 152.142 52.6274 153.298 53.418 154.387C54.2086 155.476 55.2574 156.426 56.5646 157.238C57.8717 158.05 59.0514 158.459 61.0715 158.856L132.482 160.534L126.328 172.877Z" fill="#ACDE8D"/>
<path d="M131.786 161.991L68.3467 160.678C62.1567 160.393 59.4016 159.231 56.1112 157.215C53.3561 155.528 51.7112 153.576 50.0103 151.352C48.3234 149.093 47.34 145.534 47.5733 143.696C48.2083 138.696 48.824 138.161 49.8588 135.543L73.8695 74.1117L92.0561 74.4882L64.745 138.839C64.2975 139.972 64.1684 141.097 64.3578 142.217C64.5612 143.301 65.0243 144.327 65.7473 145.295C66.4702 146.263 67.4255 147.109 68.6132 147.834C69.8009 148.559 70.8703 148.926 72.699 149.287L137.251 151.084L131.786 161.991Z" fill="#ACDE8D"/>
<path d="M141.328 28.0833L92.1972 27.059C87.9214 27.0182 83.1453 27.5448 79.3612 28.8661C75.636 30.1403 72.183 31.5056 69.3609 33.8126C66.5388 36.1196 65.4646 36.731 62.3705 40.6247C59.2763 44.5183 57.1431 46.7461 53.8838 55.7526L29.2815 122.143L9.83891 121.738L40.0266 48.2054C44.3559 38.2148 44.748 38.237 47.4989 33.8041C50.3085 29.3241 53.9716 25.4896 58.488 22.3006C63.0633 19.0645 68.2877 16.5661 74.1614 14.8056C80.0361 12.9968 86.1512 12.1345 92.5066 12.2187L147.856 13.3725L141.328 28.0833Z" fill="#ACDE8D"/>
<path d="M144.95 19.9224L90.9664 18.797C86.2683 18.7515 81.8405 19.4453 77.6831 20.8784C73.5903 22.2605 69.3759 24.1117 66.2757 26.6151C63.1755 29.1184 60.3558 31.383 58.3086 35.1136C56.2614 38.8441 58.2265 34.6353 53.2438 46.3706L21.863 121.988L0.499978 121.543L33.6488 41.7358C38.403 30.8927 38.8338 30.9169 41.8552 26.106C44.941 21.244 48.9648 17.0829 53.9265 13.6226C58.9527 10.1112 64.6925 7.40089 71.1459 5.49152C77.6003 3.52977 84.3191 2.59548 91.3022 2.68865L152.119 3.9565L144.95 19.9224Z" fill="#ACDE8D"/>
<path d="M62.4313 60.9086C63.493 55.4358 67.8749 46.9987 70.9421 42.4471L137.354 43.9017L129.277 62.7496L62.4313 60.9086Z" fill="#ACDE8D"/>
</svg>