<svg xmlns="http://www.w3.org/2000/svg" width="33" height="38" viewBox="0 0 33 38" fill="none">
<path d="M25.9672 35.0807L11.9224 34.853C10.5523 34.7953 9.94454 34.5357 9.21986 34.084C8.61307 33.7058 8.25263 33.2667 7.88032 32.7662C7.51118 32.2577 7.30032 31.4546 7.35557 31.0392C7.50588 29.9089 7.64325 29.7874 7.87748 29.1948L13.3134 15.2906L17.3398 15.3559L11.1673 29.9233C11.066 30.1796 11.0353 30.4341 11.075 30.6867C11.118 30.9314 11.2185 31.1627 11.3767 31.3806C11.5349 31.5985 11.7448 31.7887 12.0064 31.9512C12.268 32.1136 12.5041 32.1954 12.9083 32.2749L27.1985 32.6107L25.9672 35.0807Z" fill="#ACDE8D"/>
<path d="M27.0597 32.9024L14.3646 32.6396C13.1259 32.5825 12.5746 32.3499 11.9161 31.9466C11.3648 31.6089 11.0356 31.2183 10.6952 30.7733C10.3577 30.3213 10.1609 29.609 10.2076 29.2412C10.3346 28.2406 10.4578 28.1336 10.6649 27.6096L15.4698 15.3163L19.1092 15.3917L13.6439 28.2693C13.5543 28.4959 13.5285 28.7212 13.5664 28.9452C13.6071 29.1621 13.6998 29.3674 13.8444 29.5612C13.9891 29.7549 14.1803 29.9243 14.418 30.0693C14.6556 30.2143 14.8696 30.2879 15.2356 30.3601L28.1534 30.7197L27.0597 32.9024Z" fill="#ACDE8D"/>
<path d="M28.9692 6.10538L19.1374 5.90041C18.2817 5.89224 17.3259 5.99762 16.5687 6.26203C15.8232 6.51702 15.1322 6.79025 14.5675 7.25192C14.0027 7.71358 13.7878 7.83592 13.1686 8.6151C12.5494 9.39429 12.1225 9.84009 11.4703 11.6424L6.54698 24.9282L2.65624 24.8471L8.69724 10.1321C9.56362 8.13285 9.64208 8.13729 10.1926 7.2502C10.7548 6.35369 11.4878 5.58635 12.3917 4.94818C13.3072 4.30058 14.3527 3.80063 15.5281 3.44831C16.7038 3.08634 17.9275 2.91378 19.1993 2.93063L30.2755 3.16154L28.9692 6.10538Z" fill="#ACDE8D"/>
<path d="M29.6942 4.47223L18.8912 4.24702C17.951 4.23791 17.065 4.37675 16.233 4.66354C15.414 4.94012 14.5706 5.31058 13.9502 5.81154C13.3298 6.31249 12.7656 6.76568 12.3559 7.51222C11.9462 8.25876 12.3394 7.4165 11.3423 9.76491L5.06255 24.8971L0.787499 24.808L7.42108 8.83742C8.37247 6.66756 8.45869 6.6724 9.0633 5.70966C9.68083 4.7367 10.486 3.904 11.479 3.21154C12.4848 2.50887 13.6334 1.96648 14.9248 1.58439C16.2164 1.19182 17.561 1.00485 18.9584 1.0235L31.1287 1.27721L29.6942 4.47223Z" fill="#ACDE8D"/>
<path d="M13.1807 12.6742C13.3931 11.579 14.27 9.89058 14.8838 8.97974L28.1737 9.27082L26.5576 13.0426L13.1807 12.6742Z" fill="#ACDE8D"/>
</svg> 