<svg xmlns="http://www.w3.org/2000/svg" width="23" height="12" viewBox="0 0 23 12" fill="none">
<path d="M2.25457 1.17739C2.14899 1.08847 2.0248 1.01896 1.88907 0.972823C1.75335 0.926685 1.60876 0.904821 1.46355 0.908482C1.31835 0.912142 1.17537 0.941255 1.04279 0.994158C0.910214 1.04706 0.790625 1.12272 0.690855 1.21681C0.591084 1.3109 0.513086 1.42158 0.461313 1.54254C0.409541 1.66349 0.385008 1.79235 0.389115 1.92176C0.393223 2.05116 0.425891 2.17858 0.485253 2.29673C0.544615 2.41488 0.62951 2.52146 0.73509 2.61037L10.688 10.9875C10.8934 11.1605 11.1652 11.2569 11.4478 11.2569C11.7303 11.2569 12.0022 11.1605 12.2075 10.9875L22.1616 2.61038C22.2695 2.52205 22.3566 2.4155 22.4179 2.29691C22.4792 2.17832 22.5134 2.05006 22.5186 1.91958C22.5238 1.7891 22.4999 1.659 22.4482 1.53683C22.3965 1.41467 22.3181 1.30287 22.2175 1.20795C22.1169 1.11302 21.9961 1.03685 21.8622 0.983856C21.7283 0.930867 21.584 0.902116 21.4375 0.899273C21.291 0.89643 21.1454 0.919552 21.009 0.967296C20.8727 1.01504 20.7483 1.08645 20.6432 1.17739L11.4478 8.91591L2.25457 1.17739Z" fill="white"/>
</svg>